<svg xmlns="http://www.w3.org/2000/svg" width="128" height="128" viewBox="0 0 33.867 33.867"><path d="M16.933 0A16.933 16.933 0 008.67 2.177L24.062 20.87a2.646 2.646 0 011.073-.232 2.646 2.646 0 01.755.112 20.976 20.976 0 017.956-3.405 16.933 16.933 0 00.02-.41A16.933 16.933 0 0016.934 0zm-9.48 2.921A16.933 16.933 0 000 16.933a16.933 16.933 0 0016.933 16.934 16.933 16.933 0 00.43-.015 20.976 20.976 0 015.16-10.16 2.646 2.646 0 01-.033-.409 2.646 2.646 0 01.48-1.518zm17.291 6.01l.395 11.442a2.91 2.91 0 00-.004 0 2.91 2.91 0 00-.35.024l-.394-11.454zm-3.396 3.844l2.925 7.73a2.91 2.91 0 00-.219.078l-.238-.29-2.799-7.395zm10.058 1.246l.287.206-3.496 4.896a21.186 21.186 0 00-.702.375zm-3.89.432l.338.102-1.748 5.799a21.186 21.186 0 00-.2.126 2.91 2.91 0 00-.194-.044zm-11.782 2.8l6.72 4.162.24.29a2.91 2.91 0 00-.117.202l-7.03-4.356zm-4.552 2.569l11.182 2.588a2.91 2.91 0 00-.088.342l-11.174-2.586zm11.045 3.499a2.91 2.91 0 00.027.35l-6.229.626-.035-.352zm-.796 1.35a21.186 21.186 0 00-.512.622l-5.954 2.709-.145-.32z" fill="#8f804e"/></svg>