<?xml version="1.0" standalone="no"?>
<!DOCTYPE svg PUBLIC "-//W3C//DTD SVG 20010904//EN"
 "http://www.w3.org/TR/2001/REC-SVG-20010904/DTD/svg10.dtd">
<svg version="1.0" xmlns="http://www.w3.org/2000/svg"
 width="700.000000pt" height="700.000000pt" viewBox="0 0 700.000000 700.000000"
 preserveAspectRatio="xMidYMid meet">
<metadata>
Created by potrace 1.14, written by Peter Selinger 2001-2017
</metadata>
<g transform="translate(0.000000,700.000000) scale(0.100000,-0.100000)"
fill="#000000" stroke="none">
<path d="M3299 6996 c-2 -2 -40 -6 -84 -9 -80 -6 -218 -23 -265 -32 -22 -4
-101 -19 -170 -32 -163 -29 -487 -134 -665 -214 -27 -12 -52 -23 -55 -23 -17
-3 -260 -131 -260 -137 0 -7 501 -622 519 -639 3 -3 35 -41 71 -85 35 -44 72
-89 82 -100 9 -11 43 -52 75 -91 32 -39 71 -86 86 -105 16 -19 43 -52 60 -73
53 -66 608 -739 631 -766 19 -23 128 -156 166 -204 8 -10 20 -23 25 -30 6 -6
251 -303 545 -660 811 -984 881 -1070 895 -1089 12 -17 16 -17 67 -2 85 24 97
26 178 26 74 0 100 -3 130 -15 9 -4 44 13 85 40 304 201 639 371 960 486 118
42 324 107 365 114 14 3 77 18 140 33 l115 27 0 140 c-1 132 -13 352 -20 364
-2 3 -6 32 -10 64 -3 33 -8 62 -9 65 -2 3 -7 28 -10 55 -24 175 -105 460 -197
694 -151 382 -393 768 -669 1066 -79 85 -253 252 -320 307 -36 30 -67 56 -70
60 -13 16 -230 171 -299 214 -156 97 -365 209 -501 268 -47 20 -236 92 -280
106 -19 6 -64 21 -100 32 -36 12 -72 22 -80 24 -8 2 -42 10 -75 19 -71 18
-196 45 -245 52 -19 3 -60 9 -91 15 -31 5 -81 12 -110 15 -30 3 -67 8 -84 10
-35 6 -521 14 -526 10z m1817 -1909 c2 -34 5 -147 9 -252 3 -104 8 -235 10
-290 3 -55 8 -185 11 -290 3 -104 7 -226 9 -270 1 -44 6 -179 10 -300 4 -121
8 -249 10 -285 2 -36 6 -171 10 -300 4 -129 8 -251 9 -272 3 -34 1 -36 -31
-40 -19 -2 -36 -1 -38 2 -2 3 -6 98 -10 210 -3 113 -8 250 -10 305 -2 55 -7
190 -10 300 -4 110 -8 236 -10 280 -2 44 -6 172 -10 285 -3 113 -8 252 -10
310 -3 58 -7 184 -10 280 -3 96 -7 223 -9 282 l-4 107 32 3 c17 2 33 2 36 0 2
-1 5 -31 6 -65z m-667 -822 c45 -124 160 -428 170 -450 5 -11 59 -155 121
-320 61 -165 115 -309 120 -320 5 -11 43 -109 84 -218 74 -197 74 -197 50
-203 -39 -10 -67 37 -140 231 -37 99 -75 200 -84 225 -10 25 -52 136 -94 247
-77 204 -81 215 -109 288 -69 176 -217 574 -217 581 0 13 52 33 62 25 4 -4 21
-42 37 -86z m2089 -197 c8 -10 0 -27 -31 -70 -23 -31 -70 -96 -104 -145 -136
-192 -449 -630 -468 -655 -11 -14 -27 -36 -35 -48 -50 -75 -81 -106 -143 -141
l-69 -39 19 29 c10 16 54 80 98 142 44 62 92 129 107 150 139 196 536 751 555
777 25 33 43 33 71 0z m-786 -75 c4 -2 3 -14 -2 -26 -5 -12 -34 -107 -65 -212
-50 -167 -97 -325 -251 -835 -21 -69 -45 -130 -53 -137 -20 -15 -61 -17 -61
-2 0 6 18 70 39 142 49 163 107 357 126 417 7 25 55 182 105 350 51 168 94
308 97 313 4 6 47 0 65 -10z"/>
<path d="M1474 6349 c-64 -45 -172 -127 -190 -144 -6 -5 -35 -30 -65 -55 -88
-72 -348 -338 -431 -440 -266 -330 -473 -707 -604 -1096 -40 -120 -89 -293
-100 -354 -3 -14 -11 -56 -19 -95 -14 -73 -22 -122 -31 -190 -3 -22 -7 -51
-10 -65 -26 -157 -25 -660 1 -821 2 -13 6 -46 10 -74 11 -92 16 -119 47 -260
202 -938 784 -1749 1618 -2257 109 -66 332 -178 463 -232 238 -98 579 -195
781 -221 27 -3 52 -8 55 -10 3 -1 40 -6 81 -10 41 -4 89 -9 105 -11 17 -3 114
-7 216 -10 l187 -5 10 48 c6 26 14 64 17 83 4 19 11 49 16 65 5 17 23 82 40
145 162 596 500 1217 922 1692 l57 65 4 109 c3 94 8 119 34 182 17 41 38 82
46 91 15 17 6 30 -130 197 -81 98 -158 193 -173 209 -14 17 -62 75 -106 130
-44 55 -83 102 -86 105 -4 3 -61 73 -128 155 -68 83 -138 168 -156 190 -38 45
-131 158 -187 225 -41 51 -125 153 -312 380 -70 85 -143 173 -161 195 -17 22
-90 110 -161 196 -71 86 -185 225 -254 309 -69 84 -130 157 -135 164 -6 6 -30
36 -55 66 -25 30 -47 57 -50 60 -3 3 -23 28 -45 55 -22 28 -50 61 -61 75 -12
14 -90 108 -174 210 -175 214 -185 225 -316 385 -55 66 -129 156 -164 200 -36
44 -67 82 -70 85 -3 3 -24 27 -45 55 -22 27 -47 56 -55 65 -8 9 -48 58 -89
108 -41 51 -78 92 -81 92 -4 0 -33 -19 -66 -41z m2118 -3125 c183 -114 475
-295 648 -402 411 -254 404 -249 429 -283 19 -25 20 -32 9 -47 -15 -22 26 -44
-339 183 -133 83 -253 157 -268 165 -14 9 -57 36 -96 60 -38 25 -77 50 -87 55
-9 6 -72 44 -138 85 -67 41 -136 84 -153 94 -18 11 -54 34 -82 51 -27 18 -103
65 -168 105 -64 40 -120 77 -123 82 -5 8 21 58 30 58 3 0 154 -93 338 -206z
m-1157 -349 c77 -18 208 -48 300 -70 164 -39 1179 -273 1211 -280 10 -2 60
-13 109 -25 50 -12 97 -23 105 -25 8 -2 38 -9 65 -15 28 -6 57 -13 65 -15 8
-2 84 -19 168 -39 84 -20 155 -36 157 -36 7 0 -6 -53 -14 -63 -4 -4 -68 7
-142 24 -73 17 -141 32 -149 34 -8 2 -85 20 -170 40 -85 20 -193 45 -240 55
-47 11 -123 29 -170 40 -47 12 -96 23 -110 26 -14 3 -63 14 -110 25 -102 25
-112 27 -170 39 -25 6 -56 13 -70 16 -14 3 -70 16 -125 29 -55 13 -181 42
-280 65 -99 23 -225 52 -280 65 -55 13 -111 26 -125 28 -77 15 -160 41 -160
51 0 6 3 21 6 34 7 25 9 25 129 -3z m2161 -732 c3 -38 0 -40 -116 -48 -47 -3
-92 -8 -100 -10 -8 -2 -53 -7 -100 -10 -47 -3 -92 -8 -100 -10 -8 -2 -49 -7
-90 -10 -41 -3 -88 -8 -105 -9 -105 -11 -166 -17 -210 -22 -53 -4 -120 -11
-195 -19 -49 -5 -97 -10 -201 -20 l-67 -7 -4 36 c-3 27 0 36 12 37 8 0 22 2
31 4 9 1 59 6 110 10 52 4 97 9 100 11 3 2 41 6 85 9 87 7 107 9 204 19 36 4
81 9 100 11 85 8 168 17 205 21 22 2 65 6 95 10 30 3 73 7 95 9 22 3 72 7 110
11 39 3 71 7 73 8 1 2 17 3 34 2 28 -1 32 -5 34 -33z m-197 -281 c-19 -21 -44
-50 -56 -65 -20 -24 -52 -41 -193 -104 -30 -14 -75 -34 -100 -45 -25 -11 -87
-40 -138 -64 -52 -24 -95 -44 -97 -44 -2 0 -43 -18 -92 -41 -48 -22 -102 -47
-120 -55 -17 -8 -70 -32 -118 -54 -48 -22 -101 -46 -118 -54 -18 -8 -59 -26
-92 -42 -33 -15 -88 -39 -122 -55 l-61 -27 -13 29 c-7 18 -8 34 -3 39 5 4 113
55 239 113 127 58 257 117 290 132 33 15 83 38 110 50 48 22 346 158 430 196
22 10 94 43 160 73 66 30 122 55 124 55 2 1 -12 -16 -30 -37z"/>
</g>
</svg>
